<?xml version="1.0" standalone="no"?>
<!DOCTYPE svg PUBLIC "-//W3C//DTD SVG 20010904//EN"
 "http://www.w3.org/TR/2001/REC-SVG-20010904/DTD/svg10.dtd">
<svg version="1.0" xmlns="http://www.w3.org/2000/svg"
 width="512.000000pt" height="512.000000pt" viewBox="0 0 512.000000 512.000000"
 preserveAspectRatio="xMidYMid meet">
<metadata>
Created by potrace 1.14, written by Peter Selinger 2001-2017
</metadata>
<g transform="translate(0.000000,512.000000) scale(0.100000,-0.100000)"
fill="#000000" stroke="none">
<path d="M1706 4790 c-76 -24 -106 -84 -106 -215 l0 -95 -102 -1 c-57 0 -116
-3 -133 -5 -90 -14 -176 -58 -252 -128 -65 -60 -106 -127 -134 -220 -18 -58
-19 -132 -18 -1726 0 -1400 3 -1673 14 -1717 46 -168 179 -302 346 -347 81
-22 2397 -22 2478 0 170 45 311 192 350 364 7 30 10 608 8 1725 l-2 1680 -23
57 c-69 171 -206 283 -382 312 -14 3 -71 5 -126 5 l-102 1 -3 108 c-4 100 -7
112 -31 144 -69 90 -193 88 -262 -6 -17 -22 -21 -46 -24 -137 l-4 -109 -238 0
-238 0 -4 109 c-4 119 -12 141 -72 185 -39 29 -133 29 -172 0 -60 -44 -68 -66
-72 -185 l-4 -109 -238 0 -238 0 -4 109 c-4 118 -12 141 -70 184 -30 22 -100
31 -142 17z m-105 -722 c1 -111 2 -118 24 -152 32 -48 74 -70 135 -71 47 0 63
5 94 29 53 40 66 78 66 191 l0 95 240 0 240 0 0 -95 c0 -52 0 -97 0 -100 -1
-18 36 -68 66 -92 31 -23 47 -28 94 -28 47 0 63 5 95 29 52 40 65 78 65 191
l0 95 239 0 239 0 4 -109 c4 -119 12 -141 72 -185 44 -33 132 -29 181 8 52 40
65 78 65 192 l0 96 108 -3 c117 -4 148 -17 188 -76 18 -27 19 -79 19 -1684 l0
-1656 -28 -36 c-55 -72 28 -68 -1263 -65 -1156 3 -1163 3 -1190 24 -15 11 -37
33 -48 48 l-21 27 0 1658 0 1658 29 37 c40 53 74 65 189 66 l97 0 1 -92z"/>
<path d="M1695 3186 c-71 -31 -111 -124 -86 -199 15 -43 58 -85 102 -97 21 -6
349 -10 857 -10 911 0 866 -3 918 66 24 31 29 47 29 93 -1 65 -20 100 -74 137
l-35 24 -840 -1 c-679 0 -847 -2 -871 -13z"/>
<path d="M1706 2550 c-16 -5 -42 -21 -57 -36 -72 -69 -60 -186 25 -247 l31
-22 842 -3 c934 -3 886 -6 939 64 24 31 29 47 29 93 -1 65 -20 100 -74 137
l-35 24 -835 -1 c-460 0 -849 -5 -865 -9z"/>
<path d="M1695 1906 c-66 -29 -105 -106 -90 -178 11 -49 22 -66 67 -98 l40
-30 839 0 c929 0 882 -3 935 65 23 31 28 48 29 96 0 62 -16 94 -69 133 -27 21
-36 21 -874 23 -690 2 -853 0 -877 -11z"/>
</g>
</svg>
